<svg width="21" height="22" viewBox="0 0 21 22" fill="none" xmlns="http://www.w3.org/2000/svg">
<g clip-path="url(#clip0)">
<path d="M14.9 21.6H6.2C2.8 21.6 0 18.8 0 15.4V6.2C0 2.8 2.8 0 6.2 0H14.9C18.3 0 21 2.8 21 6.2V15.5C21 18.9 18.3 21.6 14.9 21.6ZM6.2 1.6C3.7 1.6 1.6 3.7 1.6 6.2V15.5C1.6 18 3.6 20 6.2 20H14.9C17.4 20 19.5 17.9 19.5 15.4V6.2C19.5 3.7 17.4 1.6 14.9 1.6H6.2Z" fill="black"/>
<path d="M10.5 16.5C7.29999 16.5 4.79999 13.9 4.79999 10.8C4.79999 9.2 5.39999 7.7 6.59999 6.6C7.59999 5.6 9.09999 5 10.5 5C12.3 5.1 13.8 5.7 14.8 6.7C15.8 7.7 16.3 9.1 16.2 10.7C16.2 12.2 15.6 13.7 14.5 14.7C13.5 15.9 12.1 16.5 10.5 16.5ZM10.4 7C9.49999 7 8.59999 7.3 7.89999 8C7.19999 8.7 6.69999 9.7 6.69999 10.8C6.69999 12.9 8.39999 14.6 10.5 14.6C12.6 14.6 14.3 12.9 14.3 10.8C14.3 9.7 14 8.8 13.4 8.1C12.8 7.4 11.8 7 10.5 7H10.4Z" fill="black"/>
<path d="M16.4 6.20001C17.1179 6.20001 17.7 5.61798 17.7 4.90001C17.7 4.18204 17.1179 3.60001 16.4 3.60001C15.682 3.60001 15.1 4.18204 15.1 4.90001C15.1 5.61798 15.682 6.20001 16.4 6.20001Z" fill="black"/>
</g>
<defs>
<clipPath id="clip0">
<rect width="21" height="21.6" fill="white"/>
</clipPath>
</defs>
</svg>
